HIERARCHY
ROOT Hips
{
	OFFSET -0.001795 -0.223333 0.028219
	CHANNELS 6 Xposition Yposition Zposition Zrotation Yrotation Xrotation 
	JOINT LeftUpLeg
	{
		OFFSET 0.069520 -0.091406 -0.006815
		CHANNELS 3 Zrotation Yrotation Xrotation
		JOINT LeftLeg
		{
			OFFSET 0.034277 -0.375199 -0.004496
			CHANNELS 3 Zrotation Yrotation Xrotation
			JOINT LeftFoot
			{
				OFFSET -0.013596 -0.397961 -0.043693
				CHANNELS 3 Zrotation Yrotation Xrotation
				JOINT LeftToe
				{
					OFFSET 0.026358 -0.055791 0.119288
					CHANNELS 3 Zrotation Yrotation Xrotation
					End Site
					{
						OFFSET 0.000000 0.000000 0.000000
					}
				}
			}
		}
	}
	JOINT RightUpLeg
	{
		OFFSET -0.067670 -0.090522 -0.004320
		CHANNELS 3 Zrotation Yrotation Xrotation
		JOINT RightLeg
		{
			OFFSET -0.038290 -0.382569 -0.008850
			CHANNELS 3 Zrotation Yrotation Xrotation
			JOINT RightFoot
			{
				OFFSET 0.015774 -0.398415 -0.042312
				CHANNELS 3 Zrotation Yrotation Xrotation
				JOINT RightToe
				{
					OFFSET -0.025372 -0.048144 0.123348
					CHANNELS 3 Zrotation Yrotation Xrotation
					End Site
					{
						OFFSET 0.000000 0.000000 0.000000
					}
				}
			}
		}
	}
	JOINT Spine
	{
		OFFSET -0.002533 0.108963 -0.026696
		CHANNELS 3 Zrotation Yrotation Xrotation
		JOINT Spine1
		{
			OFFSET 0.005487 0.135180 0.001092
			CHANNELS 3 Zrotation Yrotation Xrotation
			JOINT Spine2
			{
				OFFSET 0.001457 0.052922 0.025425
				CHANNELS 3 Zrotation Yrotation Xrotation
				JOINT Neck
				{
					OFFSET -0.002778 0.213870 -0.042857
					CHANNELS 3 Zrotation Yrotation Xrotation
					JOINT Head
					{
						OFFSET 0.005152 0.064970 0.051349
						CHANNELS 3 Zrotation Yrotation Xrotation
						End Site
						{
							OFFSET 0.000000 0.000000 0.000000
						}
					}
				}
				JOINT LeftShoulder
				{
					OFFSET 0.078845 0.121749 -0.034090
					CHANNELS 3 Zrotation Yrotation Xrotation
					JOINT LeftArm
					{
						OFFSET 0.090977 0.030469 -0.008868
						CHANNELS 3 Zrotation Yrotation Xrotation
						JOINT LeftForeArm
						{
							OFFSET 0.259612 -0.012772 -0.027456
							CHANNELS 3 Zrotation Yrotation Xrotation
							JOINT LeftHand
							{
								OFFSET 0.249234 0.008986 -0.001171
								CHANNELS 3 Zrotation Yrotation Xrotation
								End Site
								{
									OFFSET 0.000000 0.000000 0.000000
								}
							}
						}
					}
				}
				JOINT RightShoulder
				{
					OFFSET -0.081759 0.118833 -0.038615
					CHANNELS 3 Zrotation Yrotation Xrotation
					JOINT RightArm
					{
						OFFSET -0.096012 0.032551 -0.009143
						CHANNELS 3 Zrotation Yrotation Xrotation
						JOINT RightForeArm
						{
							OFFSET -0.253742 -0.013329 -0.021401
							CHANNELS 3 Zrotation Yrotation Xrotation
							JOINT RightHand
							{
								OFFSET -0.255298 0.007772 -0.005559
								CHANNELS 3 Zrotation Yrotation Xrotation
								End Site
								{
									OFFSET 0.000000 0.000000 0.000000
								}
							}
						}
					}
				}
			}
		}
	}
}
MOTION
Frames: 7
Frame Time: 0.050000
0.000000 0.900841 0.000000 -1.177079 -37.622309 -0.680330 5.388316 1.571612 -24.104092 -7.361648 1.423710 -1.551097 -51.585725 -35.896339 45.040288 0.000000 0.000000 0.000000 1.104050 -0.270359 5.801024 8.142909 0.154979 11.803561 -8.169465 -10.328845 -8.638454 0.000000 0.000000 0.000000 -3.248252 0.942673 17.197339 -9.170586 4.040610 -3.257990 6.216684 7.828515 13.080939 0.760656 -0.291137 -25.204767 0.000000 0.000000 0.000000 -22.374028 -9.667225 7.341926 -44.306643 -17.815954 -0.370170 -2.938507 -32.911116 2.773509 0.000000 0.000000 0.000000 20.950013 22.128535 6.673961 50.976311 26.598195 6.553728 5.763946 28.966500 1.759748 0.000000 0.000000 0.000000 
-0.024695 0.889354 0.037264 -2.567760 -38.471099 -0.263361 6.109038 1.789935 -23.151524 -6.748490 1.558922 2.291453 -52.462205 -40.467222 40.668338 0.000000 0.000000 0.000000 2.634521 -0.478924 7.509198 6.691541 0.546961 15.108742 -8.809374 -10.439482 -10.078583 0.000000 0.000000 0.000000 -5.073907 1.430816 17.910237 -7.473317 2.782242 -6.039548 6.984246 9.573615 18.317469 -1.547006 1.046185 -28.982366 0.000000 0.000000 0.000000 -25.232552 -9.363930 7.750860 -41.377840 -19.452197 -0.667672 -1.340372 -32.158357 2.264430 0.000000 0.000000 0.000000 19.035681 25.761945 8.991761 50.847666 30.501670 7.527303 1.744571 31.808613 1.016170 0.000000 0.000000 0.000000 
-0.050909 0.876942 0.076461 -2.217637 -34.362975 -0.235163 3.428914 1.010392 -26.494647 -4.634580 1.796107 12.047482 -57.284946 -46.334809 40.589177 0.000000 0.000000 0.000000 0.411690 -0.234244 6.004210 13.408495 0.009980 22.891661 -9.727493 -16.489022 -6.460661 0.000000 0.000000 0.000000 -5.899937 1.598320 18.735115 -9.130152 4.129108 -2.643758 6.763534 8.157455 14.414503 -0.595516 0.792254 -28.447602 0.000000 0.000000 0.000000 -23.362801 -11.222613 8.005192 -42.182326 -18.165738 -0.564393 -0.778574 -30.874591 1.954956 0.000000 0.000000 0.000000 17.756630 25.479741 9.184163 52.181743 34.315156 9.759043 0.699590 31.962352 0.758168 0.000000 0.000000 0.000000 
-0.076114 0.870438 0.114644 -2.302859 -33.573340 -1.321082 3.326325 1.061000 -27.615811 -4.101453 2.985252 21.760176 -59.493972 -50.383502 39.629794 0.000000 0.000000 0.000000 -1.280145 0.061545 2.152815 19.830889 -0.637477 35.340448 -10.616729 -23.266327 7.231361 0.000000 0.000000 0.000000 -7.844166 2.454784 21.366101 -9.386829 4.423755 -1.674811 5.572613 9.177926 13.885599 0.342648 0.623519 -28.467821 0.000000 0.000000 0.000000 -21.609189 -13.484154 8.355107 -40.902578 -18.647268 -0.191506 0.613354 -32.302908 1.558859 0.000000 0.000000 0.000000 17.350976 30.092071 12.321798 48.163595 36.805647 9.830958 -0.195366 35.548216 0.744855 0.000000 0.000000 0.000000 
-0.100473 0.866343 0.148923 -2.436033 -30.959758 -1.054379 3.410175 1.071319 -29.794391 -3.776382 4.039612 29.911441 -63.943082 -52.814470 43.226007 0.000000 0.000000 0.000000 -3.870322 0.502315 -3.180630 27.970327 -3.473007 43.229072 -13.131726 -27.789982 23.061177 0.000000 0.000000 0.000000 -8.863830 3.140037 24.439460 -10.206980 4.914830 -1.316108 5.869357 8.144616 13.232411 -0.490567 1.201596 -29.238068 0.000000 0.000000 0.000000 -22.117308 -15.618010 9.402494 -38.033702 -20.146496 0.244344 4.757463 -32.594290 0.304039 0.000000 0.000000 0.000000 13.187618 31.941503 12.870927 49.434396 40.616141 11.722165 -3.477113 38.787934 -0.218716 0.000000 0.000000 0.000000 
-0.124286 0.864966 0.178204 -3.424978 -28.264790 -0.562480 4.192036 1.037228 -29.754531 -3.024670 4.091992 33.984996 -68.820077 -54.809543 47.209761 0.000000 0.000000 0.000000 -3.327292 0.928915 -9.284503 31.515664 -5.687393 47.160565 -18.961604 -32.929495 34.673285 0.000000 0.000000 0.000000 -9.341438 3.775161 27.978319 -10.370026 5.040192 -1.013745 4.828669 8.334184 12.249592 0.121141 1.236462 -29.774858 0.000000 0.000000 0.000000 -20.799957 -17.231815 9.430946 -37.024809 -20.961231 0.688554 9.647078 -35.574232 -1.271807 0.000000 0.000000 0.000000 13.176475 34.997056 14.966883 43.581160 43.930530 11.340898 -7.346998 41.170222 -1.453395 0.000000 0.000000 0.000000 
-0.149022 0.864981 0.204168 -4.429643 -23.469563 -0.193810 4.559743 0.682092 -30.301020 -1.408575 3.146541 38.078386 -76.346077 -55.871573 54.700539 0.000000 0.000000 0.000000 -3.130672 1.661207 -15.904788 32.916721 -7.894988 47.125252 -23.465067 -37.889505 33.770048 0.000000 0.000000 0.000000 -9.363691 4.002904 31.721711 -10.099033 4.986179 -0.330727 4.311795 7.899919 10.479028 -0.408478 1.832314 -30.134145 0.000000 0.000000 0.000000 -21.046197 -18.384712 9.360784 -35.440025 -21.763602 1.099515 13.425363 -39.230020 -2.906327 0.000000 0.000000 0.000000 11.793013 35.738037 15.554090 41.052582 47.060761 11.812959 -11.258930 42.083560 -2.774921 0.000000 0.000000 0.000000 
